<?xml version="1.0" standalone="no"?>
<!DOCTYPE svg PUBLIC "-//W3C//DTD SVG 20010904//EN"
 "http://www.w3.org/TR/2001/REC-SVG-20010904/DTD/svg10.dtd">
<svg version="1.0" xmlns="http://www.w3.org/2000/svg"
 width="225.000000pt" height="225.000000pt" viewBox="0 0 225.000000 225.000000"
 preserveAspectRatio="xMidYMid meet">
<metadata>
Created by potrace 1.11, written by Peter Selinger 2001-2013
</metadata>
<g transform="translate(0.000000,225.000000) scale(0.100000,-0.100000)"
fill="#000000" stroke="none">
<path d="M490 1772 c-55 -27 -80 -74 -80 -148 l0 -64 -62 0 c-116 0 -159 -46
-166 -176 l-5 -84 -36 0 c-93 0 -141 -61 -141 -178 0 -122 40 -181 130 -190
l50 -5 0 -78 c0 -147 43 -199 164 -199 l66 0 0 -44 c0 -92 68 -146 185 -146
83 0 129 20 162 69 22 32 23 43 23 227 l0 194 344 0 345 0 3 -204 c3 -202 3
-205 28 -232 36 -39 80 -54 157 -54 125 0 183 53 183 166 l0 64 63 0 c115 0
158 46 165 176 l5 84 36 0 c92 0 141 62 141 178 0 122 -40 181 -130 190 l-50
5 0 78 c0 147 -43 199 -164 199 l-66 0 0 44 c0 91 -68 146 -183 146 -77 0
-121 -15 -157 -54 -25 -27 -25 -30 -28 -222 l-3 -194 -345 0 -344 0 0 184 c0
174 -1 185 -23 217 -33 49 -79 69 -162 69 -47 0 -82 -6 -105 -18z m192 -79
c17 -15 18 -46 18 -566 0 -639 9 -587 -103 -587 -117 0 -107 -55 -107 583 0
498 2 552 17 569 22 25 148 26 175 1z m1060 0 c17 -15 18 -46 18 -566 0 -639
9 -587 -103 -587 -117 0 -107 -55 -107 583 0 498 2 552 17 569 22 25 148 26
175 1z m230 -190 c17 -15 18 -39 18 -352 0 -396 4 -381 -91 -381 l-59 0 0 375
0 375 57 0 c38 0 62 -5 75 -17z m-1562 -398 l0 -375 -57 0 c-98 0 -93 -19 -93
369 0 396 -4 381 91 381 l59 0 0 -375z m1060 30 l0 -105 -345 0 -345 0 0 105
0 105 345 0 345 0 0 -105z m682 88 c14 -13 18 -31 18 -89 0 -84 -13 -104 -66
-104 l-34 0 0 105 0 105 32 0 c17 0 40 -7 50 -17z m-1972 -108 l0 -105 -32 0
c-53 0 -68 23 -68 106 0 84 13 104 66 104 l34 0 0 -105z"/>
</g>
</svg>
